<svg xmlns="http://www.w3.org/2000/svg" data-name="Layer 1" width="2674.87" height="967.28"><rect id="backgroundrect" width="100%" height="100%" x="0" y="0" fill="none" stroke="none"/><defs><style>.cls-1{fill:#397ec1;}.cls-2{fill:#e83a7a;}.cls-3{fill:#704fa0;}.cls-4{fill:#64cae1;}.cls-5{fill:#9c59a4;}</style></defs><title>osm-logo_color_rgb_white_text</title><g class="currentLayer"><title>Layer 1</title><path d="M1379.8299963378906,527.000009765625 L1300.0899963378906,702.9100097656251 a36.5,36.5 0 0 1 -8.55,8.55 c-3.3200000000000003,2.39 -6.39,3.56 -9.26,3.56 h-4.27 c-2.83,0 -6,-1.17 -9.61,-3.56 a25.66,25.66 0 0 1 -8.2,-8.55 l-79.76,-175.91 v381.73 a21.19,21.19 0 0 1 -5.35,14.59 q-5.32,6.08 -15.29,6.06 q-7.84,0 -14.26,-6.06 a19.36,19.36 0 0 1 -6.39,-14.59 V434.4000097656251 a19.35,19.35 0 0 1 6.39,-14.58 c4.29,-4 9,-6.06 14.26,-6.06 q15,0 20.64,15.67 l100.42,218.63 l99,-218.63 q5.7,-15.67 19.94,-15.67 a20.64,20.64 0 0 1 20.64,20.64 v474.33 a20.64,20.64 0 0 1 -20.64,20.66 q-9.26,0 -14.59,-6.06 a21.27,21.27 0 0 1 -5.35,-14.59 z" id="svg_1" class="selected" fill="#ffffff" fill-opacity="1"/><path d="M1829.3699963378906,903.030009765625 a11.35,11.35 0 0 0 0.35000000000000003,3.2 a8.08,8.08 0 0 1 0.36000000000000004,2.5 c0,1 0.24000000000000002,1.42 0.7100000000000001,1.42 a19.15,19.15 0 0 1 -5.33,13.53 q-5.34,5.7 -15.32,5.7 a21.38,21.38 0 0 1 -12.46,-4.27 a17.81,17.81 0 0 1 -7.49,-11.4 l-39.16,-156.69 H1625.6899963378905 l-39.18,156.69 a21.7,21.7 0 0 1 -7.84,11.4 a19.84,19.84 0 0 1 -12.11,4.27 q-10,0 -15.31,-6.41 a21.7,21.7 0 0 1 -5.35,-14.25 v-3.56 L1669.0899963378906,428.71000976562505 q5.67,-15 20.66,-15 c3.8,0 7.34,1.55 10.67,4.640000000000001 a25.78,25.78 0 0 1 7.14,11.75 v-0.7100000000000001 zm-89.73,-186.59 l-51.27,-214.37 l-52,214.37 z" id="svg_2" class="" fill="#ffffff" fill-opacity="1"/><path d="M1962.6099963378906,437.260009765625 q0,-7.83 6.39,-14.25 t14.26,-6.43 q12.82,0 20.64,18.52 l201.57,392.42 V437.260009765625 q0,-7.83 6,-14.25 a19.33,19.33 0 0 1 14.59,-6.43 q7.84,0 13.88,6.43 T2246.0899963378906,437.260009765625 v474.32 q0,13.53 -5.7,17.1 c-3.8,2.36 -6.65,3.56 -8.55,3.56 c-9.51,0 -15.91,-1.42 -19.23,-4.27 s-5.46,-5.46 -6.4,-7.84 l-203,-393.84 v385.29 c0,6.66 -1.9,11.74 -5.7,15.32 a20.07,20.07 0 0 1 -14.23,5.33 a21.86,21.86 0 0 1 -14.26,-5.33 c-4.26,-3.58 -6.39,-8.66 -6.39,-15.32 z" id="svg_3" class="" fill="#ffffff" fill-opacity="1"/><path d="M2389.9899963378907,559.040009765625 a149.71,149.71 0 0 1 10.32,-55.91 a132.59,132.59 0 0 1 29.55,-45.22 a144.94,144.94 0 0 1 45.59,-30.61 q26.31,-11.42 58.39,-11.41 a133.19,133.19 0 0 1 54.83,11.41 a147.27,147.27 0 0 1 44.88,30.61 a140.5,140.5 0 0 1 30.26,45.57 a144.2,144.2 0 0 1 11,56.27 v229.33 a139.59,139.59 0 0 1 -11,55.18 a140.83,140.83 0 0 1 -75.14,75.5 a137.12,137.12 0 0 1 -54.83,11 a139.72,139.72 0 0 1 -55.2,-11 a153.26,153.26 0 0 1 -45.94,-29.92 a141.08,141.08 0 0 1 -31.34,-43.45 a122.76,122.76 0 0 1 -11.38,-52.33 zm41.3,231.47 a88.41,88.41 0 0 0 8.55,38.1 a107.5,107.5 0 0 0 22.43,31.69 a104,104 0 0 0 32.4,21.37 a97.76,97.76 0 0 0 38.46,7.84 a91.69,91.69 0 0 0 38.1,-8.2 a110.12,110.12 0 0 0 32.05,-21.72 a108.09,108.09 0 0 0 22.43,-31.69 a88.42,88.42 0 0 0 8.55,-38.1 V559.040009765625 a105.74,105.74 0 0 0 -7.84,-41 a103.12,103.12 0 0 0 -21.35,-32.75 a97.45,97.45 0 0 0 -32.07,-21.73 a101.49,101.49 0 0 0 -39.87,-7.82 a97.74,97.74 0 0 0 -39.89,8.17 a103.39,103.39 0 0 0 -54.12,55.56 a101.84,101.84 0 0 0 -7.84,39.53 z" id="svg_4" class="" fill="#ffffff" fill-opacity="1"/><path d="M1289.5499963378907,174.95000976562505 q0,43.55 -19.06,67.32 t-53.52,23.77 q-34.1,0 -53.5,-23.77 t-19.52,-66.86 V126.46000976562505 q0,-43.4 19.3,-67.42 t53.44,-24 q34.57,0 53.72,24.08 t19.14,67.8 zm-17.74,-48.8 q0,-36.9 -14.2,-55.43 t-40.92,-18.54 q-25.81,0 -40.32,18.16 t-14.83,54.26 v50.35 q0,37.06 14.67,55.67 t40.76,18.6 q26.88,0 40.85,-18.54 t14,-55.73 z" id="svg_5" class="" fill="#ffffff" fill-opacity="1"/><path d="M1446.8999963378906,187.260009765625 q0,38.58 -13.44,58.66 t-40.14,20.09 q-29,0 -43.39,-23.17 v84.32 h-17 V95.88000976562489 h15.75 l0.78,22.86 q14.84,-25.93 43.39,-25.93 q27,0 40.46,19.14 t13.58,58.52 zm-17.13,-15.67 q0,-32.08 -10,-47.2 t-31.1,-15.12 q-27.19,0 -38.77,27.62 v87.91 q11.59,25.14 39.08,25.14 q20.68,0 30.63,-15.12 t10.13,-46.59 z" id="svg_6" class="" fill="#ffffff" fill-opacity="1"/><path d="M1541.8799963378906,266.05000976562496 q-29.54,0 -46.17,-19.31 t-17,-55 v-20.39 q0,-36.76 16.07,-57.67 t44.16,-20.93 q27.19,0 41.46,17.74 t14.59,54.37 v16.05 h-99.28 v9.42 q0,28.71 12.27,44.32 t34.67,15.59 q24.69,0 40,-18.08 l8.94,11.44 q-16.36,22.37 -49.7,22.38 m-2.94,-157.2 q-20.25,0 -31.12,14.28 t-12,41.79 h82 v-4.5 q-1.23,-51.57 -38.91,-51.57 " id="svg_7" class="" fill="#ffffff" fill-opacity="1"/><path d="M1647.7899963378907,95.88000976562489 l0.46,26.56 a62.14,62.14 0 0 1 18.93,-21.62 a44.6,44.6 0 0 1 26.17,-8 q43.71,0 44.78,58.22 V262.96000976562505 h-17 V152.8700097656249 q-0.17,-22.39 -7.87,-33.05 t-24.27,-10.65 q-13.42,0 -24.16,10.11 t-16.29,27.72 v116 h-17.14 V95.88000976562489 z" id="svg_8" class="" fill="#ffffff" fill-opacity="1"/><path d="M1964.0899963378906,207.68000976562507 q0,-18.83 -10.73,-29.65 t-40.08,-20.69 q-29.32,-9.88 -43.09,-22.08 q-18,-15.91 -18,-42 q0,-25.79 17.74,-42 t45.86,-16.21 q28.73,0 46.95,18.84 t18.22,48.48 H1963.0899963378906 q0,-22.7 -12.73,-36.68 t-34.68,-14 q-21.3,0 -33.59,11.51 t-12.27,29.73 q0,17 11.59,27.8 t36.9,19.22 q25.33,8.43 38.29,17.46 t19.15,21.23 q6.17,12.21 6.19,28.71 q0,26.4 -17.84,42.55 t-47.19,16.15 a79.65,79.65 0 0 1 -36,-8.12 a60.64,60.64 0 0 1 -25.48,-23.32 q-9.19,-15.2 -9.18,-35.9 h17.6 q0,23.79 14.36,37.37 t38.75,13.58 q21.32,0 34.22,-11.43 t12.89,-30.57 " id="svg_9" class=""/><path d="M1964.0899963378906,207.68000976562507 q0,-18.83 -10.73,-29.65 t-40.08,-20.69 q-29.32,-9.88 -43.09,-22.08 q-18,-15.91 -18,-42 q0,-25.79 17.74,-42 t45.86,-16.21 q28.73,0 46.95,18.84 t18.22,48.48 H1963.0899963378906 q0,-22.7 -12.73,-36.68 t-34.68,-14 q-21.3,0 -33.59,11.51 t-12.27,29.73 q0,17 11.59,27.8 t36.9,19.22 q25.33,8.43 38.29,17.46 t19.15,21.23 q6.17,12.21 6.19,28.71 q0,26.4 -17.84,42.55 t-47.19,16.15 a79.65,79.65 0 0 1 -36,-8.12 a60.64,60.64 0 0 1 -25.48,-23.32 q-9.19,-15.2 -9.18,-35.9 h17.6 q0,23.79 14.36,37.37 t38.75,13.58 q21.32,0 34.22,-11.43 t12.89,-30.57 " class="" id="svg_22" fill="#ffffff" fill-opacity="1"/><path d="M2012.8026278352736,170.93000976562507 q0,-36.14 16.37,-57.13 t44.64,-21 q28.4,0 44.69,20.69 t16.45,57 V188.260009765625 q0,36.76 -16.45,57.3 T2074.1426278352737,266.05000976562496 q-27.95,0 -44.32,-20.07 t-17,-55.28 zm17.3,17.21 q0,28.85 11.65,45.35 t32.35,16.51 q21.16,0 32.34,-15.89 t11.37,-45.51 v-17.73 q0,-28.85 -11.74,-45.43 t-32.26,-16.59 q-19.92,0 -31.66,16.21 t-12,44.58 z" id="svg_10" class="" fill="#ffffff" fill-opacity="1"/><path d="M2262.9799963378905,243.04000976562497 q-14.22,23 -44,23 q-22.7,0 -34.27,-15.77 t-11.75,-46.32 v-108.1 h17 v107.62 q0,22.7 8,34.44 t23.14,11.73 q32.46,0 41.54,-31.5 v-122.3 h17.3 V262.96000976562505 h-16.67 z" id="svg_11" class="" fill="#ffffff" fill-opacity="1"/><path d="M2391.159996337891,111.94000976562506 a64.77,64.77 0 0 0 -10.81,-1.08 a32.3,32.3 0 0 0 -23.85,9.72 q-9.66,9.74 -13.68,27 v115.36 h-17.14 V95.88000976562489 h16.84 l0.30000000000000004,25 q12.2,-28.11 38.31,-28.1 q6.79,0 10.35,2 z" id="svg_12" class="" fill="#ffffff" fill-opacity="1"/><path d="M2471.0899963378906,249.99000976562502 q17.9,0 27.48,-10 t10.35,-28.78 h16.53 q-1.23,25.64 -16.38,40.24 t-38,14.59 q-29.82,0 -45,-19.07 t-15.51,-56.61 v-20.37 q0,-38.3 15.21,-57.76 t45.16,-19.45 q24.86,0 39.22,15.69 T2525.4899963378907,152.260009765625 h-16.53 q-0.78,-20.68 -10.49,-32 t-27.5,-11.37 q-22.22,0 -32.66,15 t-10.42,46 v19 q0,32.08 10.49,46.66 t32.73,14.58 " id="svg_13" class="" fill="#ffffff" fill-opacity="1"/><path d="M2616.909996337891,266.05000976562496 q-29.54,0 -46.17,-19.31 t-17,-55 v-20.39 q0,-36.76 16.07,-57.67 t44.16,-20.93 q27.19,0 41.46,17.74 t14.59,54.37 v16.05 h-99.28 v9.42 q0,28.71 12.27,44.32 t34.67,15.59 q24.69,0 40,-18.08 l8.94,11.44 q-16.36,22.37 -49.7,22.38 m-2.94,-157.2 q-20.25,0 -31.12,14.28 t-12,41.79 h82 v-4.5 q-1.23,-51.57 -38.91,-51.57 " id="svg_14" class="" fill="#ffffff" fill-opacity="1"/><path class="cls-1" d="M604.9199963378907,42.570009765624945 c14.21,2.11 28.57,3.6100000000000003 42.63,6.51 c12.88,2.66 25.55,6.55 38.15,10.43 c10.67,3.29 21.29,6.87 31.58,11.13 a350.93,350.93 0 0 1 63.09,34 a368.08,368.08 0 0 1 103.84,106.12 a361.45,361.45 0 0 1 44.12,98 a345.89,345.89 0 0 1 11.86,66.59 a370.86,370.86 0 0 1 -2.44,79.72 a12.81,12.81 0 0 0 0,1.7400000000000002 c-4.43,26.34 -11.16,52 -21.24,76.82 a337,337 0 0 1 -41.82,74.71 a331.6,331.6 0 0 1 -51.4,54.69 a317.32,317.32 0 0 1 -61.15,41 c-26.05,13.31 -53.28,23.39 -82.2,29 a323,323 0 0 1 -59.07,6.22 a391.45,391.45 0 0 1 -41.71,-2.45 a254.47,254.47 0 0 1 -59.18,-13.23 c-15,-5.3 -29.81,-11.48 -44.43,-17.86 c-7,-3.07 -13.5,-7.5 -20.21,-11.3 c7.14,1.55 13.9,-0.24000000000000002 20.7,-2.15 c34.16,-9.58 66.23,-24 97.24,-41 c35.79,-19.64 70,-41.68 100.89,-68.46 c3.09,-2.68 54.64,-59 55.88,-60.9 c5.76,-8.77 12.09,-17.25 17,-26.5 c8.17,-15.51 16.19,-31.2 22.81,-47.41 c7.09,-17.41 11.67,-35.73 15,-54.31 c3.18,-17.87 5.45,-35.87 5.19,-54 c-0.22000000000000003,-15.31 -1.61,-30.63 -3.29,-45.87 c-2.33,-21.21 -7.72,-41.79 -14.74,-61.94 a325.43,325.43 0 0 0 -26.8,-58 c-10.38,-17.65 -21.91,-34.57 -35.76,-49.61 a501.78,501.78 0 0 0 -37.94,-37.06 c-10.56,-9.26 -22.19,-17.38 -33.89,-25.22 c-10.49,-7 -21.73,-12.95 -32.64,-19.36 " id="svg_15"/><path class="cls-2" d="M133.08999633789062,761.1300097656249 c-12.52,-12.68 -25.48,-24.95 -37.45,-38.12 c-15.27,-16.78 -28,-35.52 -39.37,-55.13 a369,369 0 0 1 -42.88,-113.7 a374,374 0 0 1 -6.85,-62.6 a363,363 0 0 1 8.15,-86.7 a346.93,346.93 0 0 1 21.75,-66.81 A351.38,351.38 0 0 1 103.97999633789061,236.260009765625 c1.6800000000000002,-1.77 3.2,-3.7 4.8,-5.5600000000000005 c0.35000000000000003,-0.7300000000000001 0.6800000000000002,-1.44 1,-2.15 l0,0.06000000000000001 a19,19 0 0 0 3.3200000000000003,-1.9 c10.24,-8.86 19.94,-18.41 30.72,-26.56 c32.42,-24.49 67.75,-43.56 106.93,-55.08 c23.21,-6.84 46.76,-11.75 70.95,-13.31 c16,-1 32,-1.52 48,-0.22000000000000003 a323.28,323.28 0 0 1 63.76,11.18 c20.85,6 41.33,13.17 60.09,24.41 c13.61,8.17 27.75,15.620000000000001 40.63,24.82 a296.3,296.3 0 0 1 79.49,84.83 c9.28,14.83 16.75,30.79 25,46.24 c-2.88,-2.26 -5.48,-5.22 -8.74,-6.66 c-7.34,-3.25 -15,-6 -22.59,-8.5 c-39.13,-13 -79.54,-19.69 -120.47,-22.67 c-25.34,-1.85 -50.86,-1.6600000000000001 -76.31,-1.87 c-8.28,-0.06000000000000001 -16.56,1.55 -24.85,2.41 c-12,2 -24.22,3.2800000000000002 -36,6.14 c-16.46,4 -32.72,8.86 -48.9,13.91 c-6.65,2.06 -12.84,5.5600000000000005 -19.23,8.41 a33,33 0 0 0 -4.5,1.4300000000000002 A315.08,315.08 0 0 0 160.23999633789063,411.260009765625 a305.23,305.23 0 0 0 -38.54,67.32 c-5.71,13.79 -10.61,28 -15,42.23 a151.77,151.77 0 0 0 -5.07,26.15 c-2.22,17.95 -4.48,35.93 -5.51,54 c-0.6500000000000001,11.41 0.33000000000000007,23 1.55,34.44 c1.52,14.21 3.37,28.48 6.27,42.45 a314.4,314.4 0 0 0 22.81,68.27 c2.2800000000000002,4.94 4.24,10 6.35,15 " id="svg_16"/><path class="cls-3" d="M455.31999633789064,694.260009765625 c6.73,3.8200000000000003 13.17,8.23 20.21,11.3 c14.63,6.38 29.39,12.55 44.45,17.87 a254.87,254.87 0 0 0 59.18,13.22 a390.9,390.9 0 0 0 41.69,2.45 a323.32,323.32 0 0 0 59.09,-6.22 c28.9,-5.5600000000000005 56.13,-15.64 82.18,-29 a316.47,316.47 0 0 0 61.16,-41 A332.13,332.13 0 0 0 874.6799963378907,608.260009765625 a336.69,336.69 0 0 0 41.82,-74.71 c10.08,-24.79 16.81,-50.48 21.24,-76.82 c2,10.73 4.15,21.43 5.8100000000000005,32.21 a204.25,204.25 0 0 1 2.55,24.22 c0.55,16.35 1.33,32.77 0.46,49.07 a316.06,316.06 0 0 1 -5.79,46.62 c-3.5300000000000002,17.25 -8.55,34.25 -13.8,51.1 a264.61,264.61 0 0 1 -13.870000000000001,36.2 c-8.8,18.24 -18.06,36.31 -30.31,52.62 c-7.38,9.81 -14.45,19.85 -21.91,29.6 c-2.85,3.72 -6.38,6.92 -9.54,10.42 c-2.88,3.17 -5.43,6.71 -8.58,9.58 c-10.24,9.29 -20.66,18.39 -31.07,27.5 c-13.15,11.49 -27.83,20.82 -42.69,29.92 a314.83,314.83 0 0 1 -89.45,37.77 c-10.84,2.68 -21.83,4.72 -32.75,7 c-4.13,0.81 -8.23,2.06 -12.39,2.36 c-14.45,1.06 -28.92,2.23 -43.4,2.5 a228.87,228.87 0 0 1 -30.52,-1.6300000000000001 c-13.93,-1.6 -28,-3 -41.6,-6.33 c-18.92,-4.72 -37.86,-10 -55.92,-17.29 c-16.57,-6.65 -32.54,-15.32 -47.77,-24.72 a382.22,382.22 0 0 1 -43.2,-31.31 c-17.41,-14.45 -32.39,-31.42 -45.87,-49.67 c-19.77,-26.78 -35.54,-55.64 -45.71,-87.34 c-3.91,-12.16 -7.22,-24.55 -10,-37 a246.49,246.49 0 0 1 -6.39,-58.54 c0.36000000000000004,-19.07 1.87,-38.15 3.42,-57.17 c0.55,-6.79 2.74,-13.46 4.18,-20.18 c0.92,3.77 1.12,7.91 2.91,11.19 a168.31,168.31 0 0 0 12.54,19.63 A532.31,532.31 0 0 0 362.9699963378906,627.260009765625 c11.18,9.86 22.19,20 34.1,29 c14.67,11 30.14,21.05 45.37,31.34 c3.56,2.41 7.53,4.18 11.32,6.25 l1.44,0.48000000000000004 z" id="svg_17"/><path class="cls-4" d="M638.7199963378906,323.030009765625 c-8.29,-15.45 -15.75,-31.42 -25,-46.24 a296.51,296.51 0 0 0 -79.48,-84.84 c-12.88,-9.2 -27,-16.64 -40.65,-24.8 c-18.76,-11.24 -39.22,-18.39 -60.09,-24.41 a321.77,321.77 0 0 0 -63.76,-11.19 c-16.05,-1.28 -32,-0.81 -48,0.22000000000000003 c-24.17,1.58 -47.72,6.49 -70.95,13.33 c-39.18,11.52 -74.49,30.6 -106.93,55.08 c-10.78,8.14 -20.48,17.7 -30.72,26.56 a20.7,20.7 0 0 1 -3.3200000000000003,1.9 c4,-8.58 7.76,-17.29 12.08,-25.69 a359,359 0 0 1 65.75,-89.56 A369.78,369.78 0 0 1 382.8599963378906,11.260009765625 a357.85,357.85 0 0 1 83.94,-5 c29.13,1.57 57.84,6.38 85.49,15.83 c15.91,5.45 31.36,12.17 47,18.33 l5.62,2.17 c10.91,6.41 22.14,12.33 32.64,19.36 c11.7,7.82 23.33,16 33.87,25.22 a499.07,499.07 0 0 1 38,37.06 c13.68,14.83 25.07,31.52 35.35,48.93 a324.66,324.66 0 0 1 26.85,57.6 c7.19,20.48 12.74,41.39 15.1,63 c1.6800000000000002,15.23 3.07,30.57 3.29,45.87 c0.25,18.11 -2,36.11 -5.19,54 c-3.31,18.58 -7.9,36.9 -15,54.31 c-6.6,16.23 -14.63,31.91 -22.79,47.42 c-4.88,9.24 -11.21,17.71 -17,26.48 c-0.6200000000000001,0.9500000000000001 -5,6.73 -9.53,12.52 s-36.2,37.5 -37,38.45 c0,-8.17 -2.85,-106.42 -7.39,-129.37 c-6,-27.64 -12.33,-55.16 -21.86,-81.82 c-4.53,-12.66 -10,-25 -15,-37.48 c-0.21000000000000002,-0.36000000000000004 -0.4,-0.7300000000000001 -0.6000000000000001,-1.09 z" id="svg_18"/><path class="cls-5" d="M133.08999633789062,761.1300097656249 s0,0 0,0 l0,0 z" id="svg_19"/><path class="cls-5" d="M634.3999963378906,902.990009765625 c-14.45,1.06 -28.92,2.22 -43.4,2.5 a228.73,228.73 0 0 1 -30.52,-1.6300000000000001 c-13.95,-1.6 -28,-3 -41.61,-6.33 c-18.92,-4.72 -37.86,-10.05 -55.92,-17.29 c-16.57,-6.66 -32.53,-15.32 -47.76,-24.73 a385.72,385.72 0 0 1 -43.21,-31.31 c-17.41,-14.45 -32.39,-31.42 -45.87,-49.69 c-19.77,-26.77 -35.52,-55.62 -45.71,-87.34 c-3.89,-12.16 -7.2,-24.53 -10,-37 a244.91,244.91 0 0 1 -6.39,-58.55 c0.35000000000000003,-19.07 1.85,-38.13 3.42,-57.16 c0.55,-6.79 2.74,-13.46 4.18,-20.18 c1.82,-8.1 3.37,-16.27 5.52,-24.28 c7.61,-28.46 18.17,-55.86 30,-82.82 c0.4,-0.9 0.6300000000000001,-1.8800000000000001 0.9500000000000001,-2.8200000000000003 c0.28,-0.49000000000000005 0.6200000000000001,-1 0.8500000000000001,-1.47 c13.38,-29.27 27.76,-58 46.73,-84.16 c8.74,-12 15.7,-26 30.12,-33 c-12,2 -24.22,3.2800000000000002 -36,6.14 c-16.46,4 -32.73,8.86 -48.91,13.91 c-6.63,2.07 -12.82,5.57 -19.23,8.41 a32.79,32.79 0 0 0 -4.48,1.42 A315.13,315.13 0 0 0 160.2299963378906,411.260009765625 a305.1,305.1 0 0 0 -38.54,67.31 c-5.7,13.79 -10.59,28 -15,42.23 a153.34,153.34 0 0 0 -5.08,26.15 c-2.22,17.95 -4.46,35.93 -5.49,54 c-0.6500000000000001,11.43 0.33000000000000007,23 1.55,34.44 c1.52,14.23 3.37,28.48 6.27,42.47 a314.94,314.94 0 0 0 22.79,68.27 c2.2800000000000002,4.91 4.24,10 6.33,15 l0.8700000000000001,0.8700000000000001 c6.85,11.16 13.44,22.49 20.61,33.45 a336.3,336.3 0 0 0 60.83,69.51 a364.88,364.88 0 0 0 191.63,86.54 c21,2.75 42.12,4.05 63.3,2.6900000000000004 c13.77,-0.8700000000000001 27.61,-1.82 41.25,-3.7800000000000002 c22.76,-3.2800000000000002 44.94,-9.23 66.66,-16.79 c23.4,-8.15 45.56,-18.95 67.13,-31 c0.6300000000000001,-0.35000000000000003 1,-1.27 1.44,-1.92 c-4.12,0.8200000000000001 -8.22,2.07 -12.38,2.37 " id="svg_20"/><path d="M949.1999963378905,520.6800097656251 l-0.22000000000000003,-6.08 a208,208 0 0 0 -2.56,-24.44 c-1,-6.27 -2.14,-12.57 -3.29,-18.76 a11.45,11.45 0 0 0 -1.9,-19.53 a372.22,372.22 0 0 0 1.84,-75.14 a350.88,350.88 0 0 0 -10,-59.25 a11.44,11.44 0 0 0 -5.75,-20.23 a364.32,364.32 0 0 0 -40.51,-85.81 a371.25,371.25 0 0 0 -104.28,-106.58 a354.61,354.61 0 0 0 -63.38,-34.16 c-9.09,-3.75 -19.15,-7.3100000000000005 -31.72,-11.18 s-25.31,-7.79 -38.29,-10.46 c-8.42,-1.7400000000000002 -17,-3 -25.45,-4.13 a11.46,11.46 0 0 0 -20.1,-3.55 l-2.34,-0.9 c-4.86,-1.9 -9.7,-3.88 -14.55,-5.84 c-10.57,-4.29 -21.5,-8.74 -32.5,-12.49 a288.63,288.63 0 0 0 -40.68,-10.620000000000001 A11.5,11.5 0 0 0 491.0899963378906,8.150009765624986 c-7.39,-0.8500000000000001 -15,-1.49 -22.75,-1.9 a360.75,360.75 0 0 0 -84.31,5 A371.58,371.58 0 0 0 187.88999633789064,113.84000976562493 a362.09,362.09 0 0 0 -66.05,90 c-2.33,4.53 -4.48,9.16 -6.58,13.75 a11.37,11.37 0 0 0 -2.87,-0.41000000000000003 a11.53,11.53 0 0 0 -8.18,19.66 a354.57,354.57 0 0 0 -67.73,102.1 a350.32,350.32 0 0 0 -21.84,67.13 a366.6,366.6 0 0 0 -8.2,87.06 c0.24000000000000002,8.21 0.79,16.3 1.5,24.3 a11.47,11.47 0 0 0 2.6,22.33 c0.8200000000000001,5.49 1.7400000000000002,10.92 2.8,16.26 a372.2,372.2 0 0 0 43.05,114.16 c12.82,22.11 25.77,40.24 39.57,55.42 c8.33,9.15 17.25,18 25.88,26.56 c1.47,1.47 2.93,2.94 4.4,4.4 a11.52,11.52 0 0 0 9.4,18.2 a11.68,11.68 0 0 0 4.27,-0.8400000000000001 c0.14,0.25 0.30000000000000004,0.51 0.46,0.7600000000000001 c4.57,7.6 9.32,15.43 14.26,23 a339.33,339.33 0 0 0 61.12,69.84 a365.81,365.81 0 0 0 92.85,58.93 a11.3,11.3 0 0 0 -0.24000000000000002,2.34 a11.51,11.51 0 0 0 21.26,6.16 a364.38,364.38 0 0 0 78.59,19.47 c3.39,0.46 6.7,0.8200000000000001 10,1.17 c0,0.06000000000000001 0,0.13 0,0.19000000000000003 A11.51,11.51 0 0 0 441.0899963378906,957.260009765625 c4.51,0.19000000000000003 9,0.33000000000000007 13.31,0.33000000000000007 c5.94,0 11.73,-0.19000000000000003 17.41,-0.55 c14.67,-0.93 27.94,-1.87 41.36,-3.8 c21.27,-3.07 43.17,-8.58 67,-16.86 c18.87,-6.57 37.93,-15.15 59.34,-26.74 a11.52,11.52 0 0 0 19.49,-8.29 c7.3100000000000005,-1.49 14.86,-3 22.24,-4.86 A318.37,318.37 0 0 0 771.0899963378906,858.6000097656249 c14.34,-8.78 29.46,-18.35 42.93,-30.11 c10.23,-8.93 20.82,-18.17 31.06,-27.48 a63.77,63.77 0 0 0 5.79,-6.32 c1,-1.1400000000000001 1.92,-2.3 2.91,-3.4 s2.25,-2.37 3.39,-3.55 a79.91,79.91 0 0 0 6.25,-7 c3.64,-4.76 7.17,-9.59 10.7,-14.42 a11.49,11.49 0 0 0 13.58,-18.47 c11.65,-16.26 20.59,-34 28.1,-49.59 a266.9,266.9 0 0 0 14,-36.42 c5.07,-16.27 10.26,-33.76 13.83,-51.24 a317.87,317.87 0 0 0 5.83,-46.85 c0.7600000000000001,-14.36 0.25,-29 -0.24000000000000002,-43.1 M763.6999963378906,688.960009765625 a16.29,16.29 0 0 0 -15.620000000000001,21.5 q-10.64,4.87 -21.2,8.8 a16.43,16.43 0 0 0 -30.82,8 a13.620000000000001,13.620000000000001 0 0 0 0.17,1.61 c-5.14,1.28 -10.27,2.48 -15.43,3.47 a321.16,321.16 0 0 1 -56,6.09 a16.38,16.38 0 0 0 -14.4,-14.59 v-75.68 a16.36,16.36 0 0 0 13.17,-22.9 a517.61,517.61 0 0 0 42.18,-30.68 a29.62,29.62 0 0 0 51.24,-16 l156.53,12.16 a16.36,16.36 0 0 0 5.24,11.41 c-1.52,2.17 -3.06,4.32 -4.62,6.43 a329.86,329.86 0 0 1 -51,54.33 a318,318 0 0 1 -46.25,32.78 a16.46,16.46 0 0 0 -13.19,-6.68 M647.4299963378907,889.8300097656249 a11.53,11.53 0 0 0 -11.54,11.52 c0,0.27 0.06000000000000001,0.52 0.08000000000000002,0.78 l-0.46,0.06000000000000001 l-4.27,0.32000000000000006 c-12.77,0.9500000000000001 -26,1.9300000000000002 -39,2.18 c-5.63,0.09000000000000002 -11.59,-0.1 -17.87,-0.52 c-4,-0.27 -8.06,-0.6200000000000001 -12.38,-1.11 l-4.61,-0.52 c-12.19,-1.36 -24.79,-2.79 -36.72,-5.76 c-15.72,-3.93 -36.26,-9.42 -55.62,-17.19 c-14.72,-5.9 -30.23,-13.95 -47.42,-24.55 c-2.58,-1.6 -5.18,-3.31 -7.77,-5 a16.42,16.42 0 0 0 2,-7.65 a16.1,16.1 0 0 0 -1,-5.33 l183.78,-88.15 a16.39,16.39 0 0 0 30.17,-6.66 a327.86,327.86 0 0 0 56.72,-6.16 c5.19,-1 10.35,-2.2 15.51,-3.5 a16.43,16.43 0 0 0 8,9.26 l-55.42,148.21 a12.64,12.64 0 0 0 -2.2,-0.21000000000000002 M147.01999633789063,761.6900097656251 a11.52,11.52 0 0 0 -2,-5.22 L260.4099963378906,663.260009765625 a16.39,16.39 0 0 0 11.54,4.73 a17.21,17.21 0 0 0 2,-0.21000000000000002 c1.92,7.33 4,14.47 6.16,21.27 c9.16,28.57 23,55.59 42.14,82.45 a16.35,16.35 0 0 0 -4.8,8.37 zm176.3,-626.23 c13,-0.8600000000000001 30.2,-1.6500000000000001 47.72,-0.24000000000000002 c7.65,0.6200000000000001 15,1.46 22.13,2.45 c0,0.17 0,0.35000000000000003 0,0.52 a16.44,16.44 0 0 0 31.9,5.65 c3.15,0.79 6.27,1.6 9.35,2.49 c18.33,5.3 39.73,12.31 59.58,24.2 c3.07,1.84 6.17,3.62 9.28,5.41 a16.23,16.23 0 0 0 1.35,14.86 L409.0899963378906,267.4000097656251 a29.64,29.64 0 0 0 -51.56,20 a26.94,26.94 0 0 0 0.14,2.79 c-2.33,0.46 -4.62,0.9500000000000001 -6.92,1.5 c-16.83,4.07 -33.48,9.1 -49,13.93 a96.81,96.81 0 0 0 -13,5.46 a16.39,16.39 0 0 0 -11.63,-8 l6.25,-148.48 A16.42,16.42 0 0 0 298.69999633789064,138.260009765625 c8.39,-1.31 16.57,-2.23 24.61,-2.75 M496.7299963378906,21.730009765625027 a10.84,10.84 0 0 0 7.25,1.1600000000000001 l67.48,192.62 a16.13,16.13 0 0 0 -3.59,2.39 a295.09,295.09 0 0 0 -31.21,-25.77 c-1.19,-0.8400000000000001 -2.41,-1.6300000000000001 -3.59,-2.44 a16.43,16.43 0 0 0 -28,-17.08 c-3.06,-1.77 -6.13,-3.5300000000000002 -9.15,-5.35 c-20.21,-12.11 -41.92,-19.22 -60.47,-24.58 c-3.15,-0.9 -6.33,-1.7400000000000002 -9.54,-2.55 a15.35,15.35 0 0 0 0.19000000000000003,-1.9300000000000002 a16.41,16.41 0 0 0 -7,-13.42 zm231.94,129.86 c0.9,1.27 1.8,2.5300000000000002 2.6900000000000004,3.85 c0.6300000000000001,0.9 1.25,1.8800000000000001 1.8800000000000001,2.8200000000000003 c0.81,1.22 1.6300000000000001,2.44 2.45,3.7 c0.7000000000000001,1.08 1.3900000000000001,2.2 2.09,3.31 s1.52,2.36 2.26,3.59 s1.5,2.48 2.25,3.74 s1.3800000000000001,2.25 2.06,3.4 c1.58,2.68 3,5.41 4.53,8.12 c1.09,2 2.23,3.91 3.2800000000000002,5.890000000000001 c1.27,2.41 2.41,4.86 3.6100000000000003,7.3 s2.37,4.67 3.48,7 c0.8200000000000001,1.8 1.57,3.62 2.36,5.43 c1.35,3.05 2.72,6.09 4,9.18 c0.6600000000000001,1.6500000000000001 1.23,3.3200000000000003 1.87,5 c1.28,3.29 2.56,6.59 3.74,9.91 a0.23,0.23 0 0 0 0,0.1 a16.43,16.43 0 0 0 7.44,31.1 a16,16 0 0 0 1.7600000000000002,-0.17 c0.06000000000000001,0.25 0.14,0.52 0.21000000000000002,0.79 c0.54,2.25 1,4.48 1.5,6.7 c0.06000000000000001,0.32000000000000006 0.14,0.6300000000000001 0.21000000000000002,0.9500000000000001 c0.51,2.37 0.9500000000000001,4.72 1.36,7 c0,0.16000000000000003 0.06000000000000001,0.32000000000000006 0.09000000000000002,0.49000000000000005 c0.43000000000000005,2.41 0.81,4.78 1.1600000000000001,7.16 a1.37,1.37 0 0 0 0,0.25 c0.35000000000000003,2.45 0.6600000000000001,4.890000000000001 0.93,7.3 c1.49,13.57 3,29.6 3.26,45.65 c0.19000000000000003,13.61 -1,28.33 -3.85,45.87 c-0.4,2.5 -0.8400000000000001,5.06 -1.3,7.69 c-1.3800000000000001,7.74 -2.91,15 -4.640000000000001,22 c-0.24000000000000002,0 -0.47000000000000003,-0.08000000000000002 -0.7300000000000001,-0.08000000000000002 a16.46,16.46 0 0 0 -16.43,16 l-67.62,8.21 a16.2,16.2 0 0 0 -18.92,-12.33 c-4.76,-21.12 -10.53,-44 -18.39,-66.05 c-1.27,-3.51 -2.63,-7 -4,-10.5 a29.62,29.62 0 0 0 -0.08000000000000002,-53.76 l58.31,-150.61 a16,16 0 0 0 4.12,0.5900000000000001 a16.3,16.3 0 0 0 8.69,-2.55 c0.8900000000000001,1.19 1.79,2.36 2.66,3.59 c0.55,0.7600000000000001 1.11,1.58 1.6600000000000001,2.36 M521.9599963378906,722.9400097656251 c-10.8,-3.8200000000000003 -21.37,-8.06 -31.17,-12.19 a29.44,29.44 0 0 0 1.36,-19.8 c26.59,-8.64 54,-20.74 83.34,-36.83 c7.08,-3.89 13.85,-7.79 20.48,-11.7 a16.36,16.36 0 0 0 10.65,5.71 v75.69 a16.42,16.42 0 0 0 -14.28,13.31 c-4,-0.35000000000000003 -7.88,-0.7000000000000001 -11.7,-1.09 a253.22,253.22 0 0 1 -58.69,-13.11 m86.58,-107.57 A16.37,16.37 0 0 0 593.8699963378906,639.260009765625 c-6.55,3.85 -13.23,7.71 -20.21,11.54 c-29.14,16 -56.35,28 -82.74,36.57 a29.66,29.66 0 0 0 -52.35,-4.3100000000000005 l-4,-2.64 c-11.620000000000001,-7.79 -23.62,-15.83 -35,-24.34 c-4.24,-3.18 -8.39,-6.59 -12.49,-10 A16.4,16.4 0 0 0 363.0899963378906,624.820009765625 a533.49,533.49 0 0 1 -73,-79.43 c-0.7400000000000001,-1 -1.42,-2.11 -2.17,-3.15 a29.63,29.63 0 0 0 -6.27,-54.39 c6.66,-23.93 15.81,-48.94 28.71,-78.35 a19.57,19.57 0 0 0 0.7400000000000001,-2.11 l0.35000000000000003,-0.9 a13.83,13.83 0 0 0 0.7000000000000001,-1.25 c12.63,-27.64 27,-56.92 46.49,-83.77 c1.79,-2.45 3.48,-5 5.19,-7.52 c1.08,-1.6 2.17,-3.2 3.2800000000000002,-4.78 a29.64,29.64 0 0 0 49.77,-21.8 c0,-0.16000000000000003 0,-0.30000000000000004 0,-0.46 l7.2,0 c21.05,0.11000000000000001 42.82,0.22000000000000003 64.09,1.77 c44.69,3.26 83.91,10.64 119.9,22.57 c1.9500000000000002,0.6500000000000001 3.7800000000000002,1.27 5.54,1.8800000000000001 a29.68,29.68 0 0 0 36.17,40.19 c1.35,3.45 2.71,6.9 3.94,10.37 c7.84,21.94 13.6,44.8 18.33,65.86 a16.42,16.42 0 0 0 5.45,31.45 c2.11,22.54 3.6900000000000004,58.88 4.5600000000000005,84.35 a29.63,29.63 0 0 0 -18.65,46.17 c-12.77,10.37 -26.69,20.45 -41.76,30.38 a16.39,16.39 0 0 0 -13.11,-6.6 m-275,151.66 a16.28,16.28 0 0 0 -8.17,2.25 c-18.87,-26.53 -32.54,-53.22 -41.6,-81.38 c-2.17,-6.73 -4.18,-13.77 -6.08,-21 a16.45,16.45 0 0 0 -5.73,-31.88 c-0.43000000000000005,0 -0.8200000000000001,0.1 -1.25,0.13 a233.48,233.48 0 0 1 -3.24,-42.09 c0.28,-15.42 1.33,-30.79 2.63,-47.25 a30.47,30.47 0 0 0 3.4,0.22000000000000003 a29.68,29.68 0 0 0 11,-2.12 c0.8700000000000001,1.25 1.6900000000000002,2.55 2.6,3.77 a536.24,536.24 0 0 0 73.24,79.78 a16.36,16.36 0 0 0 6,25.72 L335.88999633789064,767.260009765625 a16.56,16.56 0 0 0 -2.36,-0.24000000000000002 M211.1699963378906,375.6500097656251 a16.35,16.35 0 0 0 -3.2,-9.7 q8.26,-7.24 17,-13.88 A311.1,311.1 0 0 1 261.0899963378906,328.6300097656249 a16.4,16.4 0 0 0 29.27,-14.07 L293.0899963378906,313.260009765625 a75.45,75.45 0 0 1 9.81,-4 c11.57,-3.6100000000000003 23.79,-7.33 36.23,-10.67 q6.22,-1.6900000000000002 12.5,-3.2 c2.18,-0.54 4.4,-1 6.62,-1.44 a29.66,29.66 0 0 0 6.14,12.44 c-1.28,1.8 -2.52,3.64 -3.74,5.46 c-1.6900000000000002,2.5 -3.37,5 -5.13,7.41 c-19.68,27.12 -34.16,56.59 -46.87,84.42 a5.18,5.18 0 0 1 -0.47000000000000003,0.81 l-0.7400000000000001,1.8 a15.6,15.6 0 0 1 -0.6000000000000001,1.71 c-13,29.66 -22.24,54.89 -29,79.07 a28.85,28.85 0 0 0 -17.24,2.56 l-56.37,-100.64 a16.4,16.4 0 0 0 6.84,-13.31 m295.77,-181.84 a16.36,16.36 0 0 0 24,-1 c1.19,0.81 2.37,1.58 3.5300000000000002,2.41 a290.12,290.12 0 0 1 30.85,25.47 a16.26,16.26 0 0 0 -3.12,9.58 a16.48,16.48 0 0 0 16.48,16.48 a16.28,16.28 0 0 0 8.9,-2.64 a301.79,301.79 0 0 1 25.8,35.35 c4.16,6.63 8,13.6 11.65,20.56 a29.92,29.92 0 0 0 -9.59,9.77 c-1.9300000000000002,-0.6800000000000002 -4,-1.3800000000000001 -6.14,-2.11 c-36.28,-12 -75.81,-19.47 -120.82,-22.75 c-21.4,-1.55 -43.23,-1.6800000000000002 -64.33,-1.79 l-7.55,0 a29.49,29.49 0 0 0 -5,-12.76 zm222.7,328.31 c-0.7100000000000001,0.92 -10.1,11.3 -25.29,27.89 a29.5,29.5 0 0 0 -16.68,-5.13 c-0.6200000000000001,0 -1.2,0 -1.8,0.08000000000000002 c-0.8900000000000001,-25.41 -2.47,-61.4 -4.5600000000000005,-84 A16.46,16.46 0 0 0 695.0899963378906,444.70000976562505 a0.7000000000000001,0.7000000000000001 0 0 1 0,-0.08000000000000002 l67.42,-8.18 a16.44,16.44 0 0 0 7.3,10.54 c-0.22000000000000003,0.55 -0.43000000000000005,1.12 -0.6500000000000001,1.6600000000000001 c-6.8100000000000005,16.72 -15.29,33.13 -22.7,47.2 a201.76,201.76 0 0 1 -12,19 c-1.6500000000000001,2.42 -3.29,4.84 -4.890000000000001,7.27 M707.9999963378906,146.260009765625 l-58.31,150.6 a29.63,29.63 0 0 0 -21.35,1.3900000000000001 c-3.6900000000000004,-7 -7.55,-14 -11.76,-20.77 a306.59,306.59 0 0 0 -26.09,-35.73 a16.37,16.37 0 0 0 3.21,-18.09 l109.93,-80.71 a16.59,16.59 0 0 0 4.37,3.31 m-428.37,8.21 l-6.25,148.46 a16.44,16.44 0 0 0 -12,6.65 L123.59999633789062,231.260009765625 a11.63,11.63 0 0 0 0.32000000000000006,-2.58 a11.49,11.49 0 0 0 -1.09,-4.84 c1.08,-1 2.18,-1.9500000000000002 3.2800000000000002,-2.93 c6.58,-6 13.39,-12.09 20.53,-17.48 c34.25,-25.88 69,-43.78 106.21,-54.74 c4.86,-1.4300000000000002 9.59,-2.71 14.28,-3.91 a16.5,16.5 0 0 0 12.5,9.64 M122.08999633789062,234.81000976562495 l137.3,78 a16.21,16.21 0 0 0 -0.14,12.44 a313.3,313.3 0 0 0 -36.61,23.79 c-5.94,4.48 -11.71,9.21 -17.32,14.14 a16.4,16.4 0 0 0 -23.44,22.78 a330.69,330.69 0 0 0 -21.54,25.69 A309.26,309.26 0 0 0 128.83999633789062,463.260009765625 a16.59,16.59 0 0 0 -4.46,-0.9 l-11.57,-222.21 a11.49,11.49 0 0 0 9.32,-5.37 M123.31999633789061,495.260009765625 a16.46,16.46 0 0 0 9,-30.3 a303.62,303.62 0 0 1 31.14,-51 a327.42,327.42 0 0 1 21.23,-25.34 a16.31,16.31 0 0 0 10.05,3.51 a16.5,16.5 0 0 0 6.33,-1.27 l56.35,100.59 a29.63,29.63 0 0 0 9,53.64 c-1.33,16.67 -2.39,32.23 -2.68,47.87 a235.24,235.24 0 0 0 3.31,42.9 a16.54,16.54 0 0 0 -8.2,5.83 l-141,-81.47 a16.71,16.71 0 0 0 1.36,-6.54 a16.45,16.45 0 0 0 -12.38,-15.91 a118.48,118.48 0 0 1 3.43,-15 c3.1,-10.1 6.25,-19.33 9.47,-28 a17,17 0 0 0 3.62,0.43000000000000005 m-23.59,107.18 c0.25,-4.35 0.5900000000000001,-8.72 0.9500000000000001,-13.07 c0.55,-6.41 1.25,-12.82 2,-19.19 h0 a16.41,16.41 0 0 0 13.19,-6.68 l141,81.47 a16.35,16.35 0 0 0 1.2,15.32 L142.26999633789063,753.760009765625 a11.07,11.07 0 0 0 -9.67,-1.6600000000000001 c-0.78,-1.87 -1.58,-3.72 -2.42,-5.54 a313.14,313.14 0 0 1 -22.65,-67.8 c-3.15,-15.23 -5,-30.58 -6.24,-42.25 c-1.36,-12.79 -2.15,-23.49 -1.55,-34.1 m239.84,165.78 l30.38,-114 a15.89,15.89 0 0 0 2.88,0.29000000000000004 a16.39,16.39 0 0 0 12.13,-5.4 c4.07,3.43 8.18,6.8100000000000005 12.43,10 c11.4,8.58 23.46,16.65 35.11,24.46 l4.24,2.83 a29.64,29.64 0 0 0 52.3,27.76 c9.92,4.18 20.67,8.5 31.66,12.38 a257.4,257.4 0 0 0 59.58,13.3 c3.8600000000000003,0.4 7.85,0.78 11.870000000000001,1.11 a16.39,16.39 0 0 0 0.8700000000000001,4.51 l-183.77,88.14 a16.38,16.38 0 0 0 -25.77,-2.6100000000000003 c-2.93,-2.31 -5.87,-4.640000000000001 -8.79,-7.06 a248.67,248.67 0 0 1 -29.32,-29 a16.43,16.43 0 0 0 -5.79,-26.74 m550.42,-194.62 a16.46,16.46 0 0 0 -16.16,13.33 l-156.52,-12.17 v-0.19000000000000003 a29.56,29.56 0 0 0 -9.94,-22.13 C720.0899963378906,538.500009765625 732.0899963378906,525.260009765625 732.7999963378907,524.260009765625 q2.4,-3.63 4.88,-7.23 a205.94,205.94 0 0 0 12.17,-19.39 c7.46,-14.15 16,-30.66 22.86,-47.55 c0.19000000000000003,-0.48000000000000004 0.36000000000000004,-1 0.55,-1.44 a16.25,16.25 0 0 0 5.41,1 a16.44,16.44 0 0 0 15.69,-11.65 l130.32,24.08 c0,0.06000000000000001 0,0.13 0,0.19000000000000003 a11.53,11.53 0 0 0 9.24,11.3 A338.72,338.72 0 0 1 896.0899963378906,574.800009765625 a16.22,16.22 0 0 0 -6.14,-1.22 m49.26,-196.53 a369,369 0 0 1 -1.7400000000000002,73.76 a12.33,12.33 0 0 0 -1.31,-0.13 a11.52,11.52 0 0 0 -10.81,7.61 L795.0899963378906,434.20000976562505 c0,-0.36000000000000004 0.11000000000000001,-0.7100000000000001 0.11000000000000001,-1.08 a16.44,16.44 0 0 0 -12,-15.78 c1.71,-6.92 3.24,-14.2 4.62,-21.92 c3.77,-21.24 5.43,-38.48 5.21,-54.28 c-0.22000000000000003,-16.21 -1.79,-32.35 -3.29,-46 c-0.27,-2.45 -0.5900000000000001,-4.92 -0.93,-7.41 c0,-0.1 0,-0.17 0,-0.25 c-0.35000000000000003,-2.41 -0.7300000000000001,-4.83 -1.17,-7.27 l-0.09000000000000002,-0.5700000000000001 c-0.43000000000000005,-2.34 -0.8700000000000001,-4.7 -1.3800000000000001,-7.07 c0,-0.27 -0.11000000000000001,-0.54 -0.17,-0.81 c-0.49000000000000005,-2.3 -1,-4.62 -1.57,-7 l-0.19000000000000003,-0.7600000000000001 a16.38,16.38 0 0 0 8.88,-7.52 l121.46,49.81 a12.3,12.3 0 0 0 -0.22000000000000003,2.31 a11.54,11.54 0 0 0 11.52,11.54 a11.33,11.33 0 0 0 3.89,-0.7300000000000001 a346.17,346.17 0 0 1 9.58,57.6 M686.3399963378906,63.17000976562497 c12.44,3.83 22.41,7.34 31.39,11.07 a350.54,350.54 0 0 1 62.7,33.78 a367.81,367.81 0 0 1 103.22,105.48 a360.73,360.73 0 0 1 39.73,83.86 a11.48,11.48 0 0 0 -7.49,5.43 L794.4899963378906,252.98000976562503 a16.29,16.29 0 0 0 0.6800000000000002,-4.42 a16.33,16.33 0 0 0 -20.37,-16 l0,-0.11000000000000001 c-0.08000000000000002,-0.22000000000000003 -0.14,-0.44000000000000006 -0.22000000000000003,-0.6600000000000001 c-0.93,-2.64 -2,-5.26 -3,-7.87 c-0.81,-2.15 -1.57,-4.32 -2.44,-6.47 c-1.1400000000000001,-2.8 -2.41,-5.57 -3.62,-8.36 c-0.93,-2.14 -1.82,-4.27 -2.79,-6.39 c-1.06,-2.2800000000000002 -2.23,-4.51 -3.36,-6.77 c-1.25,-2.5700000000000003 -2.47,-5.14 -3.8,-7.68 c-1.2,-2.29 -2.52,-4.53 -3.77,-6.79 s-2.49,-4.61 -3.81,-6.87 c-0.08000000000000002,-0.14 -0.17,-0.27 -0.25,-0.41000000000000003 a1.47,1.47 0 0 0 -0.16000000000000003,-0.27 c-0.92,-1.58 -1.85,-3.09 -2.77,-4.62 c-0.47000000000000003,-0.77 -0.9500000000000001,-1.58 -1.42,-2.36 c-0.9500000000000001,-1.52 -1.8800000000000001,-3 -2.8200000000000003,-4.45 c-0.54,-0.8500000000000001 -1.09,-1.7600000000000002 -1.6300000000000001,-2.6 c-0.8900000000000001,-1.36 -1.7600000000000002,-2.66 -2.64,-4 l-1.77,-2.66 c-0.8200000000000001,-1.22 -1.6600000000000001,-2.37 -2.49,-3.55 c-0.6500000000000001,-0.92 -1.3,-1.87 -1.9500000000000002,-2.75 c-0.78,-1.08 -1.55,-2.11 -2.33,-3.17 c-0.13,-0.16000000000000003 -0.25,-0.32000000000000006 -0.36000000000000004,-0.47000000000000003 a16.46,16.46 0 0 0 -21.35,-24.92 c-1.08,-1.12 -2.12,-2.2800000000000002 -3.21,-3.4 c-9.32,-9.58 -19,-18.79 -28.87,-27.45 c-10.84,-9.51 -22.76,-17.81 -34,-25.34 c-5.29,-3.55 -10.8,-6.79 -16.29,-10 a11.4,11.4 0 0 0 0.6600000000000001,-3.39 c8,1.11 16.21,2.31 24.16,3.94 c12.81,2.64 25.58,6.59 37.94,10.38 m-101.05,-25 c4.86,2 9.72,3.94 14.59,5.86 l2,0.7400000000000001 a11.27,11.27 0 0 0 -0.6300000000000001,3.59 a11.49,11.49 0 0 0 20.5,7.19 c5.43,3.13 10.86,6.33 16,9.8 c11.18,7.47 23,15.67 33.67,25 c10.94,9.59 21.57,19.86 31.8,30.6 a16.11,16.11 0 0 0 -1.82,18.82 l-109.68,80.52 a16.4,16.4 0 0 0 -13.07,-6.55 a17.06,17.06 0 0 0 -3.6100000000000003,0.43000000000000005 L507.56999633789064,21.610009765625023 A11.49,11.49 0 0 0 512.8899963378906,15.260009765625 a284.91,284.91 0 0 1 40.11,10.48 c10.89,3.74 21.78,8.15 32.29,12.43 M125.21999633789062,205.54000976562497 a358.7,358.7 0 0 1 65.36,-89 a367.77,367.77 0 0 1 194.1,-101.53 a357.5,357.5 0 0 1 83.43,-5 q11.49,0.6200000000000001 22.41,1.87 a11.44,11.44 0 0 0 3.15,7.55 l-77.93,103.46 a16.37,16.37 0 0 0 -22,11 c-7.23,-1 -14.67,-1.85 -22.41,-2.47 c-8.82,-0.7100000000000001 -17.55,-0.8700000000000001 -25.71,-0.7600000000000001 s-16,0.54 -22.57,1 c-8.12,0.52 -16.38,1.46 -24.84,2.77 a16.45,16.45 0 0 0 -32.2,6.71 c-4.69,1.19 -9.42,2.47 -14.26,3.89 c-37.67,11.08 -72.81,29.19 -107.43,55.34 c-7.27,5.49 -14.15,11.71 -20.78,17.71 l-2.9,2.5700000000000003 a12.22,12.22 0 0 0 -1.92,-1.58 c2.07,-4.53 4.19,-9.1 6.47,-13.53 M18.339996337890625,406.82000976562495 a347.37,347.37 0 0 1 21.61,-66.39 A351,351 0 0 1 107.08999633789062,239.260009765625 l0.24000000000000002,-0.28 a12.24,12.24 0 0 0 1.6500000000000001,0.6500000000000001 l11.620000000000001,222.9 a16.4,16.4 0 0 0 -4.46,31 c-3.24,8.74 -6.39,18 -9.53,28.18 a124.54,124.54 0 0 0 -3.56,15.53 c-0.11000000000000001,0 -0.22000000000000003,0 -0.35000000000000003,0 a16.47,16.47 0 0 0 -15.24,10.26 l-64.49,-17.95 A10.25,10.25 0 0 0 23.089996337890625,528.260009765625 a11.54,11.54 0 0 0 -11.38,-11.52 c-0.7000000000000001,-7.82 -1.23,-15.72 -1.46,-23.78 a362.38,362.38 0 0 1 8.1,-86.16 m80.43,316.17 c-13.63,-15 -26.4,-32.88 -39.08,-54.75 A368,368 0 0 1 17.089996337890625,555.260009765625 c-1,-5.18 -1.9300000000000002,-10.45 -2.74,-15.78 a11.57,11.57 0 0 0 7.65,-6.28 l64.49,18 a16.73,16.73 0 0 0 -0.25,2.55 a16.46,16.46 0 0 0 12.68,16 c-1.23,10.8 -2.33,21.69 -2.94,32.53 s0.17,21.75 1.57,34.73 c1.25,11.75 3.1,27.21 6.3,42.61 a317.21,317.21 0 0 0 22.9,68.62 c0.8400000000000001,1.82 1.6300000000000001,3.66 2.41,5.51 l-0.13,0.11000000000000001 l-4.21,-4.15 l0.06000000000000001,0.11000000000000001 l-0.33000000000000007,-0.33000000000000007 c-8.6,-8.52 -17.49,-17.33 -25.74,-26.42 m119.48,141.61 a335.82,335.82 0 0 1 -60.44,-69 c-4.91,-7.5 -9.620000000000001,-15.32 -14.18,-22.87 l-0.49000000000000005,-0.81 a11.53,11.53 0 0 0 3.8,-6.36 L317.0899963378906,783.6600097656251 a16.46,16.46 0 0 0 13,16 L319.0899963378906,917.260009765625 a11.5,11.5 0 0 0 -9,5.57 a361.87,361.87 0 0 1 -91.78,-58.27 m190.45,86 A361.14,361.14 0 0 1 331.0899963378906,931.3900097656251 a12.08,12.08 0 0 0 0.33000000000000007,-2.64 a11.52,11.52 0 0 0 -8.58,-11.11 l11,-117.69 a16.37,16.37 0 0 0 8.53,-2.6100000000000003 a252.58,252.58 0 0 0 29.82,29.51 c3,2.47 6,4.84 8.94,7.19 a16.28,16.28 0 0 0 -2.34,8.34 a16.48,16.48 0 0 0 16.49,16.48 a16.06,16.06 0 0 0 2.91,-0.30000000000000004 l26.36,86.89 a11.54,11.54 0 0 0 -5.68,6.38 c-3.37,-0.36000000000000004 -6.76,-0.7400000000000001 -10.23,-1.2 m170.19,-17.78 c-23.55,8.2 -45.22,13.66 -66.26,16.68 c-13.28,1.92 -26.45,2.85 -41.06,3.77 a279,279 0 0 1 -30.53,0.24000000000000002 a11.52,11.52 0 0 0 -11.32,-9.32 a11.08,11.08 0 0 0 -1.46,0.14 l-26.36,-86.87 a16.38,16.38 0 0 0 5.78,-4.3100000000000005 c2.66,1.7400000000000002 5.3,3.48 7.93,5.11 c17.38,10.72 33.08,18.85 48,24.85 c19.56,7.85 40.27,13.39 56.11,17.35 c12.17,3 24.9,4.46 37.21,5.84 l4.61,0.52 c2.66,0.32000000000000006 5.24,0.5700000000000001 7.76,0.79 l2.25,0.16000000000000003 c1.79,0.14 3.56,0.29000000000000004 5.29,0.38000000000000006 c0.78,0 1.52,0.06000000000000001 2.26,0.11000000000000001 l5,0.17 c0.7400000000000001,0 1.49,0 2.22,0 s1.58,0 2.34,0 c1.23,0 2.44,0 3.64,0 c13.11,-0.25 26.37,-1.23 39.21,-2.18 l4.26,-0.32000000000000006 c0.35000000000000003,0 0.6800000000000002,-0.1 1,-0.13 c0.11000000000000001,0.25 0.27,0.49000000000000005 0.4,0.7400000000000001 c-21.05,11.33 -39.79,19.77 -58.31,26.23 m281.52,-154.38 a72.34,72.34 0 0 1 -6,6.63 c-1.17,1.2 -2.34,2.41 -3.47,3.66 s-2,2.33 -3,3.51 a59.6,59.6 0 0 1 -5.43,5.94 c-10.21,9.28 -20.78,18.5 -31,27.43 c-13.25,11.57 -28.22,21 -42.41,29.71 a314.28,314.28 0 0 1 -88.83,37.51 c-7.27,1.79 -14.74,3.3200000000000003 -22,4.8 a11.49,11.49 0 0 0 -5.13,-6.24 l55.43,-148.22 a16.11,16.11 0 0 0 3.94,0.52 A16.48,16.48 0 0 0 729.0299963378907,727.260009765625 a16,16 0 0 0 -0.7000000000000001,-4.46 q10.61,-4 21.29,-8.83 a16.37,16.37 0 0 0 28.32,-0.33000000000000007 l91.46,39.1 a11.33,11.33 0 0 0 -0.7100000000000001,3.89 a11.46,11.46 0 0 0 2.6,7.22 c-3.59,4.91 -7.19,9.81 -10.870000000000001,14.64 m85.22,-214.88 a314.37,314.37 0 0 1 -5.76,46.28 c-3.55,17.33 -8.69,34.7 -13.74,50.89 a261.32,261.32 0 0 1 -13.76,35.9 c-7.46,15.48 -16.37,33.18 -27.92,49.23 a11.37,11.37 0 0 0 -13.17,3.5 l-91.86,-39.27 a16.26,16.26 0 0 0 0.7400000000000001,-4.65 a16.64,16.64 0 0 0 -1.35,-6.54 a323.18,323.18 0 0 0 46.77,-33.15 q3.63,-3.09 7.15,-6.25 a333.39,333.39 0 0 0 44.48,-48.71 c1.58,-2.12 3.12,-4.29 4.65,-6.47 a16.23,16.23 0 0 0 8.1,2.22 a16.46,16.46 0 0 0 9.48,-29.93 c2.07,-3.64 4.08,-7.3100000000000005 6,-11.07 q7.5,-14.44 13.76,-29.81 c1.92,-4.72 3.7,-9.53 5.43,-14.4 c0.25,-0.7300000000000001 0.52,-1.46 0.78,-2.18 q2.35,-6.890000000000001 4.46,-14 c0.32000000000000006,-1.06 0.6200000000000001,-2.14 0.93,-3.21 c1.31,-4.61 2.56,-9.29 3.72,-14.09 c0.32000000000000006,-1.23 0.5900000000000001,-2.52 0.8900000000000001,-3.77 c0.79,-3.45 1.57,-6.95 2.2800000000000002,-10.49 a13.24,13.24 0 0 0 1.82,-0.4 c1.09,5.79 2.17,11.68 3.07,17.54 a205.17,205.17 0 0 1 2.5300000000000002,24 l0.21000000000000002,6.09 c0.49000000000000005,14 1,28.57 0.25,42.75 " id="svg_21"/></g></svg>